<svg version="1.0" xmlns="http://www.w3.org/2000/svg"
 width="3464.000000pt" height="1155.000000pt" viewBox="0 0 3464.000000 1155.000000"
 preserveAspectRatio="xMidYMid meet">

<g transform="translate(0.000000,1155.000000) scale(0.100000,-0.100000)"
fill="#000000" stroke="none">
<path d="M19645 8013 c-86 -5 -294 -40 -310 -53 -5 -4 -37 -13 -70 -20 -80
-16 -151 -37 -201 -61 -23 -10 -46 -19 -51 -19 -12 0 -97 -35 -135 -56 -14 -7
-35 -14 -45 -14 -11 0 -29 -9 -41 -20 -12 -11 -27 -20 -35 -20 -8 0 -25 -8
-38 -18 -13 -10 -49 -31 -79 -47 -98 -50 -115 -60 -188 -113 -39 -28 -74 -52
-78 -52 -3 0 -11 -6 -19 -12 -7 -7 -34 -31 -61 -53 -119 -100 -223 -200 -279
-269 -11 -13 -53 -62 -93 -108 -100 -113 -107 -122 -148 -184 -20 -30 -40 -54
-45 -54 -5 0 -14 -11 -19 -24 -12 -32 -79 -129 -97 -139 -7 -4 -13 -15 -13
-23 0 -8 -17 -33 -39 -57 -21 -23 -41 -52 -45 -64 -4 -12 -22 -38 -41 -59 -19
-21 -35 -42 -35 -47 0 -12 -50 -71 -51 -60 -1 4 -4 114 -8 243 l-6 235 -130 6
-130 5 137 0 c75 -1 134 2 129 7 -4 4 -115 6 -246 5 l-238 -3 -2 -433 c-2
-248 -7 -438 -12 -443 -5 -5 -266 -8 -644 -7 l-634 3 -8 425 c-8 379 -10 426
-25 439 -15 12 -15 13 6 8 12 -3 20 -1 16 4 -3 5 -112 9 -247 8 -133 0 -233
-4 -223 -8 19 -7 19 -8 -2 -13 l-22 -6 2 -1109 3 -1108 245 -2 245 -2 0 432 0
432 515 -3 c458 -3 709 -7 762 -11 17 -1 18 -30 20 -423 l3 -423 240 0 240 0
5 415 5 415 115 -3 c63 -2 149 -5 190 -7 41 -2 68 0 62 4 -8 4 6 7 30 7 24 -1
45 -4 48 -8 7 -10 318 -12 353 -3 15 4 27 3 27 -2 0 -5 21 -7 50 -3 30 4 54 2
61 -4 9 -8 10 -8 5 2 -4 6 -2 12 3 12 6 0 11 -4 11 -9 0 -5 15 -5 35 -1 20 4
35 4 35 -1 0 -5 14 -9 31 -9 16 0 28 4 25 9 -3 4 13 5 37 0 54 -10 79 -11 74
-1 -3 4 10 7 29 7 19 0 34 -3 34 -7 0 -4 30 -7 68 -7 37 0 243 -2 457 -5 215
-3 404 -5 420 -5 17 1 40 1 53 1 12 -1 30 -1 40 -2 32 0 557 -1 575 0 9 0 27
1 40 1 12 1 33 1 47 0 14 -1 151 1 305 3 154 3 371 6 483 6 111 1 200 5 197
10 -5 9 43 6 89 -6 18 -4 27 -3 23 3 -4 6 12 7 41 4 74 -9 393 -1 387 10 -4 5
4 5 19 -1 25 -9 167 -10 161 0 -2 3 96 5 216 4 120 0 219 3 219 6 0 9 25 7 62
-4 20 -6 32 -4 44 8 14 15 19 15 38 2 15 -9 28 -11 37 -5 8 5 26 9 41 9 l28 0
2 -427 3 -428 238 -3 237 -2 1 32 1 33 8 -30 c4 -16 7 133 7 333 l-2 362 316
0 316 0 31 -42 c17 -24 46 -59 64 -79 18 -20 49 -55 68 -79 19 -24 40 -48 45
-54 6 -6 17 -21 25 -32 8 -12 36 -45 62 -75 25 -30 105 -125 178 -211 l132
-158 249 0 249 0 0 86 0 86 -52 65 c-29 36 -53 70 -53 76 0 7 -5 12 -12 12
-16 0 -54 51 -45 60 4 5 2 5 -4 2 -13 -7 -50 42 -45 58 1 6 -1 7 -5 3 -8 -8
-39 30 -39 47 0 6 -6 10 -12 10 -14 0 -45 40 -37 47 2 3 -4 11 -13 19 -17 13
-17 12 -4 -6 7 -11 -3 -2 -22 20 -20 21 -35 44 -34 49 1 6 -3 10 -10 11 -12 0
-59 55 -48 55 4 0 2 6 -4 14 -9 11 -4 15 26 22 21 4 45 9 53 10 8 1 36 11 63
23 26 11 47 17 47 14 0 -4 7 2 15 13 8 10 15 16 15 12 0 -5 29 21 65 55 36 35
68 61 71 58 3 -3 5 -1 3 4 -4 16 23 65 32 59 5 -3 6 3 2 12 -4 11 -2 15 4 11
6 -4 11 -1 10 6 -1 30 4 48 12 43 4 -3 6 6 3 21 -3 15 -1 23 4 20 6 -3 8 9 6
30 -3 20 -1 33 4 30 5 -3 9 140 9 328 0 186 -4 331 -9 328 -4 -3 -7 13 -4 35
2 23 -1 38 -6 35 -5 -3 -7 6 -4 20 3 16 1 24 -5 20 -6 -4 -8 2 -5 15 4 14 2
20 -5 15 -7 -4 -8 0 -3 13 4 10 4 15 0 11 -10 -9 -54 65 -47 78 4 5 3 7 -2 3
-9 -8 -52 42 -47 55 1 5 -2 6 -7 3 -5 -3 -28 13 -51 35 -24 23 -40 37 -36 30
5 -8 1 -8 -18 0 -14 7 -23 15 -21 19 7 11 -22 20 -42 13 -11 -4 -14 -3 -9 5 4
8 0 12 -11 13 -10 0 -220 1 -468 2 l-450 1 425 6 c336 4 235 6 -480 8 -587 1
-900 -2 -890 -8 13 -8 13 -10 -2 -10 -9 0 -18 5 -20 10 -1 6 -2 -171 0 -392 1
-223 -2 -409 -7 -417 -7 -11 -12 -11 -32 0 -13 7 -27 12 -31 11 -5 -1 -7 4 -5
11 1 6 -6 11 -15 11 -10 -1 -15 2 -13 7 3 4 -5 13 -17 20 -46 24 -139 108
-238 216 -88 95 -100 110 -100 121 0 6 -6 17 -13 24 -7 7 -18 24 -25 38 -16
33 -74 123 -89 141 -15 17 -143 208 -143 214 0 8 -112 161 -126 172 -9 6 -26
26 -39 43 -21 29 -188 212 -226 249 -78 75 -173 156 -182 156 -7 0 -30 18 -52
40 -22 22 -59 49 -82 60 -24 11 -46 28 -49 38 -4 13 -12 17 -25 14 -10 -3 -17
-2 -14 2 2 5 -19 20 -48 35 -71 37 -92 49 -110 65 -9 7 -22 9 -28 5 -8 -5 -9
-3 -4 6 6 10 4 12 -9 7 -9 -4 -15 -3 -12 1 8 13 -53 45 -75 39 -10 -3 -17 -1
-13 4 3 5 -6 9 -20 9 -13 0 -26 5 -28 11 -2 6 -19 11 -38 12 -19 1 -41 8 -49
15 -7 7 -20 11 -28 8 -8 -4 -11 -1 -7 5 4 8 -1 9 -16 4 -17 -5 -21 -4 -15 6 6
9 2 11 -13 7 -12 -4 -20 -3 -17 2 7 11 -24 22 -37 13 -7 -4 -8 -1 -3 7 6 10 3
12 -13 8 -12 -4 -20 -2 -16 3 3 5 -2 9 -10 9 -9 0 -16 4 -16 8 0 4 -28 14 -62
21 -35 8 -69 18 -75 24 -7 5 -25 6 -40 3 -22 -5 -25 -4 -13 4 11 8 -1 10 -48
8 -34 -2 -62 0 -62 5 0 4 -9 7 -19 7 -11 0 -21 5 -23 11 -4 12 -142 14 -161 2
-6 -3 -7 -1 -3 5 5 9 -45 12 -196 10 -112 -1 -225 -3 -253 -5z m413 -902 c57
2 76 -2 92 -16 14 -13 29 -16 55 -12 19 3 35 2 35 -4 0 -5 12 -9 28 -9 15 0
49 -7 76 -15 26 -8 52 -12 56 -10 5 3 11 1 15 -5 3 -5 15 -10 25 -10 10 0 20
-5 22 -10 2 -6 17 -12 33 -13 17 -1 32 -4 35 -7 25 -26 97 -73 153 -99 37 -17
67 -36 67 -41 0 -6 7 -10 15 -10 8 0 15 -5 15 -12 0 -6 3 -9 6 -5 4 3 13 -1
21 -9 9 -8 22 -13 29 -10 7 3 16 -3 19 -14 3 -10 20 -29 37 -42 18 -13 47 -38
66 -55 19 -18 38 -33 42 -33 4 0 18 -14 31 -31 31 -40 44 -53 72 -76 12 -10
33 -35 46 -55 12 -21 29 -38 36 -38 8 0 17 -10 21 -22 4 -13 21 -41 38 -63 17
-22 41 -60 54 -85 13 -25 34 -58 49 -75 14 -16 22 -24 18 -16 -6 9 -4 12 4 7
6 -4 9 -11 6 -16 -7 -12 57 -130 67 -124 4 3 5 -2 2 -11 -7 -18 14 -47 29 -38
5 3 7 1 4 -5 -7 -11 37 -107 53 -117 17 -11 11 -43 -9 -50 -11 -3 -32 -3 -48
0 -19 3 -22 3 -10 -3 15 -6 -62 -7 -291 -2 -14 0 -62 95 -62 123 0 27 -41 120
-59 135 -9 7 -16 19 -16 25 0 7 -6 19 -13 27 -20 25 -62 90 -62 99 0 4 -9 16
-20 26 -11 10 -20 22 -20 26 0 5 -25 34 -55 65 -30 32 -55 61 -55 65 0 4 -9
11 -20 14 -11 3 -20 13 -20 21 0 8 -6 14 -14 14 -8 0 -17 8 -20 18 -3 9 -20
23 -37 31 -17 7 -35 24 -41 37 -6 13 -15 24 -20 24 -5 0 -6 -6 -2 -12 5 -10 3
-10 -7 0 -8 7 -14 18 -14 25 0 7 -14 17 -32 22 -17 6 -41 19 -52 29 -85 77
-339 157 -509 160 -28 1 -52 5 -52 9 0 11 -274 -1 -317 -14 -18 -5 -49 -14
-68 -20 -19 -5 -39 -7 -45 -4 -5 3 -22 0 -37 -9 -16 -8 -49 -20 -76 -27 -26
-6 -50 -16 -53 -21 -3 -5 -39 -24 -79 -43 -40 -19 -86 -45 -101 -57 -16 -13
-49 -37 -73 -53 -110 -73 -371 -366 -371 -415 0 -10 -10 -31 -23 -47 -33 -39
-67 -98 -67 -114 -1 -8 -9 -32 -20 -54 -11 -22 -19 -55 -20 -73 l0 -33 -114 3
c-63 2 -112 0 -110 -4 2 -3 -19 -4 -48 0 -29 3 -66 6 -83 6 -51 1 -59 30 -19
73 36 39 55 79 47 100 -3 10 -2 15 2 10 5 -4 18 8 29 27 12 18 36 55 53 82 21
31 30 56 27 69 -4 16 -3 17 5 5 9 -13 11 -12 11 3 0 21 35 76 61 94 9 7 25 34
37 60 11 27 34 58 51 71 17 12 31 29 31 37 0 8 14 27 31 43 16 15 31 37 33 48
2 10 7 19 13 19 16 0 104 83 108 102 1 10 8 17 14 16 15 -4 62 38 55 49 -3 5
-2 8 3 7 20 -3 34 2 28 11 -3 6 1 7 9 4 9 -4 18 1 22 10 3 9 12 16 19 16 8 0
22 11 33 25 11 13 22 22 25 18 9 -8 38 17 31 28 -3 5 3 6 12 2 12 -4 15 -3 10
5 -4 8 -2 10 7 6 8 -3 21 1 29 9 8 8 25 18 38 22 25 8 52 30 45 36 -2 2 8 5
22 6 14 0 28 6 32 11 3 5 26 15 49 22 63 16 92 31 85 43 -3 6 -1 7 5 3 12 -7
125 28 117 36 -3 3 6 3 19 1 31 -6 128 16 121 27 -3 5 3 6 12 4 10 -2 92 -1
183 3 91 5 168 4 171 0 3 -5 38 -7 77 -6z m-3115 -258 c-7 -2 -21 -2 -30 0
-10 3 -4 5 12 5 17 0 24 -2 18 -5z m6160 -10 c-13 -2 -33 -2 -45 0 -13 2 -3 4
22 4 25 0 35 -2 23 -4z m1514 -9 c-3 -3 -12 -4 -19 -1 -8 3 -5 6 6 6 11 1 17
-2 13 -5z m-4654 -106 c-2 -5 7 -9 21 -9 14 -1 38 -3 54 -5 15 -2 45 -5 67 -7
22 -3 57 -12 79 -21 21 -9 43 -13 49 -9 6 3 7 1 3 -5 -5 -8 3 -12 22 -12 16 0
35 -7 43 -16 7 -8 21 -13 31 -11 10 3 16 1 12 -4 -3 -5 4 -9 15 -9 11 0 26 -6
33 -13 7 -8 30 -16 51 -20 20 -3 44 -13 53 -21 8 -9 18 -16 22 -16 4 0 24 -16
46 -35 21 -19 41 -35 45 -35 4 0 40 -31 80 -70 41 -38 77 -70 82 -70 5 0 9 -7
9 -15 0 -8 18 -33 39 -54 21 -21 42 -48 45 -58 3 -11 22 -36 41 -57 19 -21 35
-43 35 -48 0 -6 8 -22 19 -36 10 -15 22 -38 26 -52 4 -13 14 -30 21 -38 8 -7
14 -29 14 -47 0 -19 4 -45 10 -59 8 -23 7 -26 -15 -32 -14 -3 -56 -4 -94 -2
-38 2 -68 1 -66 -2 8 -14 -1267 -18 -1705 -6 -129 4 -277 9 -328 10 -50 2 -92
6 -93 10 -1 10 30 96 47 131 8 17 12 39 8 48 -3 10 -1 17 5 17 6 0 11 5 11 10
0 11 11 26 48 67 37 41 55 72 48 88 -3 9 -2 13 4 10 6 -3 10 1 10 9 0 9 5 16
10 16 17 0 60 54 55 68 -3 7 -1 11 4 8 4 -3 24 11 43 32 39 40 87 83 138 122
18 14 44 35 58 48 14 12 33 22 43 22 10 0 21 9 24 20 4 11 11 18 16 14 13 -8
61 24 54 36 -4 6 1 7 11 3 12 -4 15 -3 10 5 -5 8 2 10 24 6 19 -4 30 -2 30 5
0 6 7 11 16 11 8 0 13 4 10 9 -3 4 6 6 21 3 19 -4 24 -2 18 8 -5 8 -4 11 1 7
12 -7 105 12 100 21 -2 4 17 6 42 4 29 -2 42 0 34 6 -7 5 6 9 35 9 69 1 75 2
70 11 -3 4 39 7 93 7 54 0 96 -3 93 -7z m4506 -375 c3 -5 4 -123 1 -263 l-5
-255 -605 -3 c-457 -2 -611 1 -628 10 l-23 12 1 253 1 252 157 4 c251 6 1095
-2 1101 -10z m-3691 -530 c-10 -2 -26 -2 -35 0 -10 3 -2 5 17 5 19 0 27 -2 18
-5z m2439 -820 c-1 -54 -3 -10 -3 97 0 107 2 151 3 98 2 -54 2 -142 0 -195z"/>
<path d="M1330 6859 c12 -9 12 -10 -5 -6 -20 4 -20 -2 -22 -1115 l-2 -1118
1030 0 1029 0 -2 243 -3 242 -769 3 c-556 1 -773 5 -783 13 -11 9 -13 49 -11
188 l3 176 628 3 c619 2 627 2 627 22 0 11 4 20 9 20 6 0 10 91 10 218 1 146
-2 212 -9 202 -8 -12 -10 -11 -10 8 l0 22 -618 0 c-467 0 -621 3 -630 12 -17
17 -17 354 1 365 6 4 359 8 782 8 l770 1 3 242 2 242 -27 1 -28 1 30 8 c17 4
-431 8 -995 9 -731 0 -1021 -2 -1010 -10z m1588 -6 c-114 -2 -303 -2 -420 0
-117 1 -24 2 207 2 231 0 327 -1 213 -2z"/>
<path d="M3640 6860 l35 -7 -32 -2 c-27 -1 -31 -4 -25 -19 7 -16 103 -184 149
-260 13 -21 37 -64 54 -97 17 -33 37 -67 45 -76 8 -8 14 -19 14 -22 0 -4 22
-44 49 -89 26 -46 74 -128 106 -183 32 -55 68 -116 80 -135 13 -20 35 -58 49
-85 15 -28 35 -63 46 -80 11 -16 28 -46 38 -65 17 -33 110 -195 282 -490 40
-69 98 -169 129 -223 31 -55 61 -106 66 -116 6 -9 32 -55 59 -101 27 -47 63
-109 79 -137 l31 -53 203 0 c136 0 203 3 203 11 0 5 4 7 10 4 6 -4 7 1 3 11
-4 12 -3 15 6 10 6 -4 10 -4 9 1 -4 16 14 53 23 47 5 -3 8 -2 7 3 -5 16 24 73
35 66 5 -3 7 -2 4 3 -8 13 88 176 98 166 5 -4 5 -1 1 5 -8 15 17 56 28 46 4
-4 4 1 0 11 -5 13 -4 17 4 12 8 -5 10 -1 5 10 -5 13 -3 15 7 9 8 -5 11 -4 7 2
-8 13 57 125 68 116 4 -4 5 -2 1 4 -8 15 17 56 28 46 4 -4 4 1 0 11 -6 15 -4
17 6 11 8 -5 11 -4 6 3 -8 14 28 74 39 64 5 -4 6 -2 2 4 -8 13 57 127 67 117
4 -4 4 1 0 11 -5 14 -4 17 5 12 6 -4 10 -4 9 1 -4 16 14 53 23 48 5 -3 6 2 2
11 -5 13 -3 15 7 9 7 -5 11 -4 7 1 -7 13 58 126 67 117 4 -5 6 -3 5 2 -5 19
12 55 23 49 7 -4 8 -2 4 4 -8 14 18 55 28 45 4 -4 4 1 0 11 -5 14 -4 17 5 12
6 -4 10 -4 9 1 -4 16 14 53 23 48 5 -3 6 2 2 11 -4 12 -3 15 6 10 6 -4 10 -4
9 1 -4 17 14 53 24 47 6 -4 9 -3 5 2 -8 13 58 126 68 117 4 -5 6 -3 2 3 -8 13
57 127 67 117 4 -4 6 -3 4 2 -5 16 23 75 33 69 5 -3 8 -2 7 3 -4 17 14 53 24
47 7 -4 8 -2 4 4 -8 14 18 55 28 45 4 -4 4 1 0 11 -6 15 -4 17 6 11 8 -5 11
-4 7 2 -8 12 57 126 67 116 4 -4 4 1 0 11 -5 14 -4 17 5 12 6 -4 10 -4 9 1 -4
17 14 53 24 47 7 -4 8 -2 4 4 -9 15 68 145 79 134 4 -4 5 -1 0 7 -5 9 -2 18 7
25 15 11 18 17 18 37 0 5 5 7 12 3 7 -4 8 -3 4 4 -9 15 18 55 29 44 5 -4 5 -1
1 5 -8 15 17 56 28 46 4 -4 4 0 1 9 -4 9 -2 19 4 23 18 11 12 25 -11 26 -19 1
-17 3 7 9 17 4 -96 8 -250 9 -184 0 -275 -3 -265 -9 13 -9 13 -10 0 -10 -17 0
-43 -28 -48 -51 -2 -8 -10 -19 -17 -25 -8 -6 -12 -14 -8 -17 3 -4 1 -7 -5 -7
-7 0 -11 -3 -10 -7 4 -12 -94 -183 -104 -183 -5 0 -6 -4 -3 -10 3 -5 1 -10 -4
-10 -6 0 -10 -3 -9 -7 3 -13 -25 -63 -34 -63 -5 0 -7 -4 -4 -8 3 -5 -2 -18
-12 -28 -9 -11 -18 -26 -20 -34 -2 -8 -10 -20 -17 -26 -8 -6 -12 -14 -8 -17 3
-4 1 -7 -6 -7 -7 0 -9 -4 -6 -10 3 -5 1 -10 -5 -10 -6 0 -8 -5 -5 -10 3 -6 -1
-13 -9 -16 -9 -3 -13 -10 -10 -15 3 -5 0 -9 -6 -9 -6 0 -9 -4 -6 -8 3 -5 -2
-18 -12 -28 -9 -11 -18 -25 -20 -32 -2 -13 -51 -93 -61 -102 -3 -3 -7 -10 -8
-17 -4 -18 -105 -187 -117 -195 -6 -4 -8 -8 -4 -8 9 0 -51 -101 -65 -111 -5
-3 -7 -9 -5 -12 1 -4 -5 -15 -14 -26 -9 -11 -14 -22 -11 -25 4 -3 1 -6 -5 -6
-7 0 -11 -3 -10 -7 3 -13 -25 -63 -34 -63 -5 0 -7 -4 -4 -8 3 -5 -5 -20 -17
-33 -12 -13 -21 -25 -19 -27 6 -6 -52 -102 -61 -102 -6 0 -7 -3 -4 -6 8 -8
-24 -64 -36 -64 -4 0 -5 -4 -2 -10 3 -5 1 -10 -5 -10 -6 0 -9 -4 -6 -8 3 -5
-3 -18 -12 -28 -10 -10 -20 -23 -21 -29 -12 -36 -27 -55 -40 -53 -21 4 -72 80
-65 98 3 8 2 11 -2 7 -10 -10 -75 104 -67 116 3 6 1 7 -5 3 -10 -6 -28 30 -24
47 1 5 -3 5 -9 1 -9 -5 -10 -2 -6 10 4 9 3 15 -1 12 -9 -5 -105 161 -105 181
0 7 -3 11 -5 8 -9 -9 -43 56 -36 67 4 6 3 8 -4 4 -11 -6 -28 30 -23 49 1 6 -1
7 -5 3 -10 -10 -86 121 -77 135 3 5 1 7 -5 3 -10 -6 -28 30 -24 47 1 5 -2 6
-7 3 -9 -6 -38 52 -33 67 1 5 -3 5 -9 1 -9 -5 -10 -2 -5 12 4 10 4 15 0 11
-11 -10 -36 31 -28 46 4 6 4 9 -1 5 -11 -10 -47 50 -39 64 4 6 3 8 -4 4 -11
-6 -28 30 -23 49 1 5 -1 6 -5 2 -10 -10 -75 104 -67 117 4 6 2 8 -2 3 -11 -10
-57 72 -48 86 3 7 2 8 -2 4 -11 -9 -76 103 -68 116 4 6 1 7 -7 2 -10 -6 -12
-4 -7 9 4 10 3 15 -3 11 -9 -6 -14 8 -11 28 0 4 -3 7 -9 7 -13 0 -51 76 -42
85 4 5 2 5 -5 1 -7 -3 -14 2 -18 14 -3 11 -17 28 -31 39 -22 17 -23 20 -7 24
10 3 -110 5 -267 5 -157 -1 -269 -4 -250 -8z"/>
<path d="M6820 6861 l25 -8 -25 -4 -25 -4 -3 -1112 -2 -1113 1030 0 1030 0 -2
243 -3 242 -769 3 c-556 1 -773 5 -783 13 -11 9 -13 49 -11 188 l3 176 628 3
627 2 0 245 0 245 -618 0 c-467 0 -621 3 -630 12 -17 17 -17 349 0 366 9 9
200 10 792 6 430 -3 777 -2 771 3 -6 5 -10 99 -10 243 l0 235 -825 5 c-715 4
-771 6 -425 10 381 5 371 5 -200 7 -330 0 -589 -2 -575 -6z"/>
<path d="M8633 6863 c43 -2 110 -2 150 0 40 1 5 3 -78 3 -82 0 -115 -2 -72 -3z"/>
<path d="M9167 6863 c-2 -5 -5 -511 -6 -1125 l-2 -1118 234 0 235 0 5 23 c4
12 8 328 10 702 2 374 1 590 -2 480 l-7 -200 -2 202 c-1 111 2 204 7 207 5 3
7 19 5 36 -2 16 -2 30 1 30 2 0 29 -30 58 -67 30 -38 65 -79 78 -94 13 -14 38
-42 54 -64 17 -21 40 -49 52 -62 11 -13 36 -43 55 -65 42 -53 300 -361 308
-368 3 -3 22 -26 43 -52 21 -26 44 -53 50 -60 7 -7 19 -22 27 -34 8 -12 35
-44 60 -71 25 -27 59 -67 75 -88 17 -21 44 -55 61 -74 17 -20 42 -49 55 -65
13 -16 29 -34 34 -40 6 -6 55 -65 110 -131 55 -66 105 -126 112 -132 9 -10 75
-13 262 -13 l251 0 -2 1112 -3 1113 -30 7 c-28 7 -27 7 7 5 20 -2 34 1 32 5
-3 4 -114 7 -247 6 l-242 -2 200 -6 200 -6 -202 -2 -203 -2 -2 -726 -3 -726
-28 22 c-15 12 -25 25 -22 30 3 4 -3 14 -13 21 -15 13 -16 12 -3 -3 7 -10 11
-18 9 -18 -10 0 -113 130 -113 142 0 7 -5 13 -12 13 -16 0 -54 51 -45 60 4 5
2 5 -4 2 -12 -7 -51 41 -46 56 1 5 -2 6 -7 3 -9 -6 -48 40 -50 59 -1 6 -5 10
-10 10 -14 0 -61 62 -53 71 4 5 3 6 -2 2 -10 -8 -43 31 -38 45 1 5 -2 6 -7 2
-10 -5 -34 29 -36 50 -1 6 -6 9 -12 8 -15 -3 -55 52 -45 62 4 5 2 5 -5 1 -12
-6 -57 47 -47 56 2 3 -4 11 -13 19 -17 13 -17 12 -4 -6 7 -11 -1 -5 -17 14
-17 19 -28 39 -25 44 3 6 1 7 -4 4 -13 -8 -65 57 -55 68 4 5 2 6 -3 2 -12 -6
-110 107 -110 126 0 7 -5 12 -12 12 -12 0 -50 44 -51 58 0 5 -4 12 -8 15 -4 4
-4 1 0 -5 16 -28 -2 -11 -35 33 -19 25 -34 51 -34 57 0 7 -5 12 -12 12 -16 0
-54 51 -45 60 4 5 2 5 -4 2 -12 -7 -61 52 -56 68 2 6 0 7 -4 3 -7 -7 -39 29
-39 44 0 3 -4 10 -9 15 -5 5 -6 2 -2 -7 5 -8 -3 -2 -17 15 -14 16 -23 34 -20
39 4 5 1 6 -4 3 -10 -6 -42 30 -39 44 1 3 -5 13 -13 22 -12 15 -43 17 -257 17
-133 0 -245 -3 -247 -7z m496 -10 c3 -5 -70 -7 -161 -5 -308 4 -339 8 -90 10
136 1 249 -1 251 -5z"/>
<path d="M11639 6866 c-2 -2 -4 -116 -4 -253 l0 -248 433 -3 432 -2 0 -870 0
-871 248 1 247 1 -3 862 c-1 473 1 864 6 869 4 4 201 8 437 8 l430 1 -3 244
c-2 224 -4 245 -20 245 -15 0 -15 2 -2 10 10 6 -373 10 -1091 10 -608 0 -1108
-2 -1110 -4z m64 -13 c-13 -2 -33 -2 -45 0 -13 2 -3 4 22 4 25 0 35 -2 23 -4z"/>
<path d="M25978 6864 c-4 -3 -7 -115 -7 -249 l-2 -243 27 -6 c14 -4 336 -4
713 0 426 4 694 4 704 -2 15 -9 16 -12 1 -32 -8 -12 -20 -19 -26 -16 -7 4 -8
2 -4 -4 6 -10 -27 -36 -46 -37 -3 0 -10 -4 -15 -9 -5 -5 -2 -6 7 -2 8 5 2 -3
-15 -17 -16 -14 -33 -23 -37 -21 -4 2 -10 -1 -14 -7 -5 -8 -2 -10 7 -4 8 4 1
-4 -16 -18 -16 -14 -33 -23 -36 -21 -4 2 -13 -4 -20 -14 -12 -15 -12 -16 1 -7
9 6 2 -2 -15 -17 -16 -14 -34 -26 -39 -25 -6 1 -10 -3 -11 -10 0 -16 -51 -54
-60 -45 -5 4 -5 2 -2 -4 6 -11 -52 -61 -66 -56 -5 1 -6 -2 -3 -7 6 -9 -44 -47
-57 -43 -5 1 -6 -2 -2 -7 5 -10 -29 -34 -50 -36 -5 -1 -9 -6 -8 -12 2 -10 -53
-58 -67 -58 -3 0 -4 -3 -3 -7 3 -8 -36 -32 -52 -33 -5 0 -10 -6 -10 -12 0 -14
-40 -45 -47 -37 -3 2 -11 -4 -19 -13 -12 -16 -12 -17 1 -8 9 6 2 -2 -14 -17
-17 -14 -35 -24 -40 -21 -5 4 -6 1 -3 -4 7 -10 -38 -47 -58 -48 -5 -1 -9 -6
-8 -13 3 -11 -32 -36 -52 -37 -5 0 -10 -5 -10 -12 0 -10 -53 -58 -65 -58 -3 0
-4 -3 -3 -7 3 -8 -35 -32 -52 -33 -5 -1 -9 -6 -8 -12 3 -15 -62 -64 -72 -55
-5 4 -5 2 -1 -5 6 -11 -26 -37 -46 -38 -4 0 -13 -7 -20 -15 -11 -12 -11 -13 2
-5 9 6 2 -2 -14 -17 -17 -14 -35 -24 -40 -21 -5 4 -6 1 -3 -4 7 -11 -42 -49
-56 -45 -5 1 -6 -2 -3 -7 8 -12 -49 -53 -59 -43 -5 4 -5 2 -1 -5 7 -12 -31
-40 -47 -35 -5 1 -6 -2 -2 -7 3 -6 -6 -18 -20 -27 l-25 -16 0 -249 0 -249
1115 0 1115 0 2 148 c3 198 -2 314 -14 330 -8 9 -164 12 -717 12 -388 0 -712
4 -718 8 -10 6 -9 13 3 30 8 12 20 19 26 16 6 -4 8 -2 5 3 -6 10 37 47 55 48
3 0 10 4 15 9 5 5 2 6 -7 2 -8 -4 -2 3 15 16 16 13 34 23 40 23 5 0 10 5 10
12 0 12 58 62 61 53 1 -3 6 -1 11 4 5 5 2 6 -7 2 -8 -5 -2 3 15 17 16 14 33
23 37 21 4 -2 10 1 14 7 5 8 2 10 -7 4 -8 -4 -1 4 16 18 16 14 33 23 37 21 4
-2 10 1 14 7 5 8 2 10 -7 4 -8 -4 -1 4 16 18 16 14 34 23 40 19 5 -3 7 -2 3 3
-9 9 42 51 57 47 5 -2 7 0 3 4 -7 7 29 39 44 39 3 0 10 4 15 9 5 5 2 6 -7 2
-8 -5 -2 3 15 17 16 14 33 23 37 21 4 -2 10 1 14 7 5 8 2 10 -7 4 -8 -4 -1 4
16 18 16 14 33 23 37 21 4 -2 10 1 14 7 5 8 2 10 -7 4 -8 -4 2 6 21 23 19 16
39 27 44 24 5 -3 7 -1 4 4 -3 5 11 23 30 39 20 17 32 23 27 15 -4 -8 9 3 29
25 21 22 34 33 31 25 -4 -8 5 0 20 18 15 18 30 30 35 27 5 -3 12 0 16 6 5 8 2
10 -7 4 -8 -4 -1 4 16 18 16 14 33 23 37 21 4 -2 10 1 14 7 5 8 2 10 -7 4 -8
-4 2 6 21 23 19 16 40 27 45 24 6 -3 7 -2 3 3 -9 9 42 51 57 47 5 -2 7 0 3 3
-7 7 43 54 49 47 2 -1 17 13 34 30 17 18 27 26 23 18 -4 -8 10 3 30 25 21 22
34 33 30 25 -4 -8 10 3 30 25 21 22 34 33 31 25 -4 -8 5 0 20 18 15 18 31 29
37 26 6 -4 8 -2 5 3 -7 10 38 47 57 48 5 0 11 9 14 20 7 31 19 307 18 420 l-1
100 -30 1 c-28 1 -28 1 -2 -3 20 -3 27 -10 26 -26 -1 -17 -2 -18 -6 -4 -4 16
-65 17 -1109 17 -734 0 -1103 3 -1099 10 7 11 2 14 -7 4z"/>
<path d="M30108 6863 c45 -2 119 -2 165 0 45 1 8 3 -83 3 -91 0 -128 -2 -82
-3z"/>
<path d="M31107 6863 c-2 -5 -4 -511 -5 -1125 l-1 -1118 234 0 c129 0 236 3
238 8 4 5 20 1400 17 1456 0 10 28 -20 85 -89 22 -28 47 -57 55 -65 8 -9 40
-47 71 -85 31 -39 66 -80 77 -93 11 -13 35 -41 52 -62 32 -39 53 -65 93 -110
12 -14 39 -47 61 -75 22 -27 46 -57 55 -66 9 -8 32 -35 51 -59 19 -24 40 -48
45 -54 6 -6 30 -36 55 -66 24 -30 51 -62 60 -71 16 -18 32 -36 100 -119 25
-30 52 -62 60 -71 8 -10 83 -99 165 -198 l150 -181 255 1 255 0 -3 1108 c-2
949 -4 1110 -17 1121 -14 12 -405 15 -452 4 l-23 -6 0 -728 0 -729 -40 36
c-22 20 -37 40 -34 45 3 5 2 7 -3 6 -12 -4 -84 78 -87 99 -2 10 -8 18 -13 18
-16 0 -163 178 -156 189 3 5 1 6 -4 3 -11 -7 -49 42 -45 56 1 5 -2 6 -7 3 -9
-6 -47 44 -43 57 1 5 -2 6 -6 3 -11 -6 -108 112 -104 126 1 5 -2 7 -7 4 -9 -6
-47 44 -43 57 1 5 -2 6 -7 3 -9 -6 -47 44 -43 57 1 5 -2 6 -7 3 -11 -7 -62 59
-53 69 4 5 2 5 -5 1 -12 -7 -45 32 -38 44 3 4 -3 14 -13 21 -16 13 -16 12 -3
-6 7 -11 -1 -5 -17 14 -17 19 -30 39 -29 45 1 5 -3 10 -10 11 -16 0 -54 51
-45 60 4 5 2 5 -4 2 -12 -7 -51 41 -46 56 1 5 -2 6 -7 2 -10 -6 -37 34 -33 48
1 5 -1 6 -6 3 -10 -6 -58 54 -54 67 1 5 -2 6 -7 2 -10 -5 -35 30 -36 50 0 6
-5 10 -12 10 -12 0 -50 44 -51 58 0 5 -4 12 -8 15 -4 4 -4 0 0 -8 4 -8 -1 -4
-12 10 -11 13 -18 29 -15 34 3 5 1 6 -4 3 -13 -8 -65 57 -55 68 4 3 3 6 -3 4
-5 -1 -18 1 -28 6 -15 6 -16 10 -5 16 7 5 -95 9 -234 9 -136 0 -249 -3 -251
-7z m36 -10 c-7 -2 -19 -2 -25 0 -7 3 -2 5 12 5 14 0 19 -2 13 -5z m434 -1200
c-1 -49 -3 -9 -3 87 0 96 2 136 3 88 2 -49 2 -127 0 -175z"/>
<path d="M28880 6845 c-14 -17 -35 -21 -25 -5 3 6 1 10 -4 10 -6 0 -11 -7 -11
-15 0 -8 -5 -15 -11 -15 -5 0 -8 4 -4 10 3 5 -7 5 -25 -1 -16 -6 -33 -16 -37
-22 -4 -6 -1 -7 7 -2 8 5 11 4 6 -3 -4 -6 -13 -9 -20 -6 -7 3 -22 -3 -32 -13
-11 -10 -13 -14 -4 -8 8 5 -7 -13 -35 -40 -27 -28 -54 -48 -59 -46 -5 2 -6 -1
-3 -6 4 -6 -3 -21 -16 -35 -12 -13 -23 -28 -25 -33 -9 -34 -14 -45 -23 -45 -5
0 -8 -3 -8 -7 1 -5 0 -10 -1 -13 -1 -3 -4 -14 -8 -25 -3 -11 -7 -369 -7 -796
0 -643 2 -779 14 -792 7 -10 10 -17 7 -17 -4 0 -1 -10 6 -22 7 -13 11 -26 10
-30 -1 -5 2 -8 7 -8 5 0 14 -13 21 -29 19 -47 118 -134 195 -172 l70 -34 760
0 c418 0 771 2 785 5 14 3 35 11 48 18 12 7 22 10 22 7 0 -3 23 11 50 30 28
19 50 32 50 29 0 -15 103 116 124 158 13 26 26 45 29 42 3 -3 3 4 0 17 -4 14
-2 20 4 16 6 -4 8 4 5 20 -3 14 -1 23 4 20 5 -3 9 245 8 596 0 331 3 557 6
502 5 -80 6 -58 7 105 1 130 -2 198 -7 185 -7 -14 -9 2 -7 52 1 40 -2 69 -7
66 -5 -3 -7 6 -4 20 3 16 1 24 -5 20 -6 -4 -8 2 -4 16 3 13 3 20 0 17 -8 -8
-43 66 -36 77 3 6 1 7 -4 4 -10 -7 -28 20 -25 36 1 4 -1 6 -5 5 -10 -3 -88 75
-85 85 1 4 -1 6 -5 6 -21 -3 -34 2 -28 11 4 6 3 9 -2 8 -12 -4 -73 23 -73 33
0 5 -7 6 -15 3 -8 -4 -15 -2 -15 4 0 6 -10 8 -22 4 -11 -3 -19 -1 -16 4 4 5
-291 9 -728 9 -404 0 -734 -3 -734 -7 0 -5 -12 -8 -27 -8 -22 0 -25 2 -13 10
8 5 10 10 4 10 -6 0 -17 -7 -24 -15z m1341 -481 l47 -6 -2 -621 -1 -622 -622
-3 -623 -2 0 262 c0 145 -3 421 -7 613 -5 306 -4 352 9 366 13 13 91 15 584
17 313 1 590 -1 615 -4z m-1214 -1136 c-1 -46 -3 -9 -3 82 0 91 2 128 3 83 2
-46 2 -120 0 -165z"/>
<path d="M25316 6838 c-6 -19 -15 -2191 -9 -2205 4 -10 61 -13 239 -13 l234 0
-2 1113 -3 1112 -228 3 c-177 2 -228 0 -231 -10z"/>
<path d="M8554 5740 c0 -135 2 -190 3 -122 2 67 2 177 0 245 -1 67 -3 12 -3
-123z"/>
<path d="M30764 5155 c0 -49 1 -71 3 -48 2 23 2 64 0 90 -2 26 -3 8 -3 -42z"/>
<path d="M18775 5093 c-34 -6 -45 -34 -30 -74 29 -76 40 -104 48 -114 4 -5 22
-33 40 -60 63 -100 191 -238 262 -283 22 -14 47 -34 55 -43 8 -10 51 -36 95
-59 44 -23 87 -48 95 -55 31 -26 204 -77 294 -87 280 -30 581 -9 701 47 29 14
57 25 63 25 6 0 27 9 45 19 59 33 71 39 104 51 31 12 45 23 158 125 33 30 69
62 80 72 33 30 127 146 139 173 10 23 20 35 61 81 8 9 15 19 15 24 0 5 7 16
15 25 17 19 23 106 8 121 -15 15 -76 7 -81 -11 -4 -12 -2 -13 9 -2 7 6 20 12
28 11 11 0 10 -3 -4 -8 -11 -5 -24 -9 -30 -11 -21 -4 -36 -24 -30 -39 3 -8 3
-12 -1 -8 -10 10 -46 -63 -40 -80 3 -8 1 -11 -4 -8 -6 3 -10 0 -10 -8 0 -7
-14 -26 -30 -42 -17 -16 -28 -35 -25 -43 2 -7 0 -10 -5 -7 -6 3 -10 2 -10 -4
0 -6 -18 -28 -40 -50 -22 -22 -40 -47 -40 -55 0 -9 -6 -16 -14 -16 -8 0 -27
-15 -43 -34 -26 -31 -103 -95 -148 -123 -26 -16 -210 -106 -255 -125 -19 -9
-51 -19 -70 -22 -19 -4 -61 -16 -93 -27 -51 -17 -84 -19 -234 -18 -157 1 -178
4 -194 20 -11 11 -33 19 -51 19 -18 0 -46 9 -63 20 -16 11 -40 20 -52 20 -12
0 -24 4 -27 9 -4 5 -26 16 -51 25 -25 8 -52 22 -61 30 -8 9 -26 16 -38 16 -12
0 -35 14 -52 31 -16 17 -42 37 -59 44 -36 17 -145 116 -145 133 0 7 -11 18
-25 24 -14 6 -25 16 -25 22 0 6 -20 34 -44 61 -24 28 -46 60 -50 73 -4 12 -12
19 -18 16 -7 -4 -8 -2 -4 4 7 12 -76 175 -90 178 -5 0 -18 -1 -29 -3z m32 -19
c-3 -3 -12 -4 -19 -1 -8 3 -5 6 6 6 11 1 17 -2 13 -5z m-44 -19 c-3 -9 -8 -14
-10 -11 -3 3 -2 9 2 15 9 16 15 13 8 -4z m1202 -725 c3 -5 -3 -10 -15 -10 -12
0 -18 5 -15 10 3 6 10 10 15 10 5 0 12 -4 15 -10z m-192 -7 c-7 -2 -19 -2 -25
0 -7 3 -2 5 12 5 14 0 19 -2 13 -5z"/>
<path d="M25794 4850 c0 -124 2 -174 3 -112 2 61 2 163 0 225 -1 61 -3 11 -3
-113z"/>
<path d="M18433 5023 c-10 -10 -28 -17 -42 -15 -14 2 -21 0 -17 -7 4 -7 1 -9
-8 -5 -18 7 -86 -14 -86 -26 0 -5 -7 -7 -16 -3 -18 7 -96 -26 -88 -38 3 -5 -2
-6 -10 -3 -16 6 -76 -22 -76 -35 0 -5 -8 -7 -17 -5 -20 5 -97 -59 -85 -70 3
-4 -1 -4 -9 -1 -18 7 -44 -19 -35 -34 4 -5 1 -13 -5 -17 -8 -5 -9 -3 -4 7 12
21 -27 -22 -52 -58 -13 -18 -23 -38 -23 -46 0 -7 -3 -17 -6 -20 -10 -10 -7
-159 2 -166 5 -3 10 -23 11 -44 1 -21 9 -45 18 -53 8 -9 15 -24 15 -35 0 -10
4 -19 10 -19 5 0 15 -18 21 -40 7 -22 16 -40 21 -40 5 0 13 -12 18 -26 6 -14
26 -50 45 -79 19 -28 35 -56 35 -61 0 -5 16 -25 35 -43 19 -19 37 -43 41 -53
3 -10 10 -18 15 -18 5 0 13 -8 16 -17 4 -10 25 -36 47 -59 23 -23 68 -69 101
-103 32 -33 66 -63 75 -66 9 -3 24 -19 34 -36 10 -16 29 -35 42 -41 13 -6 24
-15 24 -20 0 -4 6 -8 14 -8 8 0 16 -7 20 -15 3 -8 18 -21 33 -28 15 -6 37 -20
47 -29 10 -10 24 -15 29 -11 6 3 7 1 3 -5 -4 -7 9 -19 31 -31 21 -10 69 -40
106 -65 38 -25 73 -44 78 -40 5 3 9 0 9 -5 0 -6 9 -11 20 -11 11 0 20 -4 20
-9 0 -4 21 -14 48 -21 26 -7 54 -19 62 -26 8 -7 31 -14 50 -16 19 -1 44 -11
55 -21 11 -10 28 -16 37 -13 10 2 18 0 18 -6 0 -6 9 -8 20 -5 11 3 18 2 15 -3
-2 -4 21 -15 53 -25 31 -10 62 -21 67 -25 6 -5 28 -12 50 -16 22 -4 42 -10 45
-14 5 -8 137 -21 242 -24 36 -1 73 -7 81 -14 18 -15 285 -14 305 2 8 5 42 11
75 12 76 2 165 10 192 17 11 3 30 6 43 6 15 1 21 5 16 13 -5 8 -2 9 9 5 10 -3
17 -2 17 2 0 5 10 7 22 3 12 -3 19 -1 15 4 -3 6 8 8 27 6 21 -2 39 2 47 11 7
7 21 12 31 9 10 -2 18 0 18 6 0 6 9 8 19 5 11 -3 28 4 40 16 13 13 27 18 37
14 11 -4 15 -2 11 4 -4 6 3 8 18 5 18 -3 25 0 25 12 0 10 6 13 15 10 8 -4 15
-1 15 6 0 7 7 10 15 6 8 -3 15 -1 15 4 0 5 6 7 13 4 7 -2 22 4 33 14 10 10 26
16 33 14 8 -3 11 0 7 7 -4 6 -2 9 6 6 8 -3 23 4 35 15 13 11 29 17 38 14 18
-7 47 14 38 29 -3 6 -1 7 5 3 7 -4 12 -3 12 3 0 6 6 8 13 5 7 -2 22 5 34 16
12 11 27 20 33 20 6 0 13 7 16 15 4 8 10 12 16 9 13 -8 49 26 41 39 -3 6 -1 7
5 3 7 -4 12 -3 12 2 0 6 8 9 18 8 10 0 16 5 14 14 -2 8 0 12 3 8 11 -11 47 11
39 24 -4 6 -3 8 3 5 6 -4 21 2 33 13 13 11 27 20 32 20 5 0 8 8 6 17 -2 11 3
18 14 18 9 0 32 16 51 35 18 19 66 65 106 102 40 37 70 72 66 78 -4 6 -2 9 3
8 15 -5 63 52 56 65 -4 7 -4 9 0 6 9 -8 56 34 56 49 0 6 9 16 20 22 11 6 20
15 20 21 0 5 5 15 10 22 47 56 63 78 82 117 13 25 40 71 61 102 20 31 37 61
37 66 0 4 9 28 21 52 12 24 19 55 17 71 -3 16 0 29 5 29 5 0 6 14 3 33 -4 17
-6 52 -6 75 1 26 -3 41 -9 38 -5 -3 -7 2 -4 14 5 21 -30 74 -41 62 -4 -3 -4 1
-1 9 7 18 -60 83 -76 73 -5 -3 -8 0 -7 8 2 7 -5 12 -15 11 -10 0 -16 1 -13 4
10 10 -43 44 -56 37 -7 -4 -10 -4 -6 1 12 12 -54 57 -76 51 -10 -3 -28 4 -40
15 -11 11 -29 18 -38 15 -11 -2 -15 0 -12 6 5 7 -2 9 -20 4 -14 -3 -26 -2 -26
2 0 13 -76 45 -92 40 -7 -3 -19 1 -26 9 -19 18 -77 16 -97 -3 -11 -11 -14 -25
-10 -41 4 -18 2 -23 -6 -17 -9 5 -10 1 -7 -14 4 -12 3 -20 -1 -17 -13 7 -34
-42 -28 -64 3 -12 2 -19 -3 -16 -10 6 -44 -71 -36 -84 4 -6 2 -11 -3 -11 -6 0
-11 -9 -11 -19 0 -11 -5 -23 -11 -26 -6 -4 -8 -14 -5 -22 4 -9 2 -11 -5 -7 -7
4 -10 1 -7 -6 2 -8 -13 -29 -35 -49 -25 -23 -37 -41 -34 -53 3 -10 1 -16 -4
-12 -5 3 -9 -2 -9 -10 0 -8 -13 -24 -29 -36 -17 -11 -33 -31 -37 -43 -4 -12
-24 -37 -45 -55 -22 -19 -39 -40 -39 -48 0 -8 -4 -14 -8 -14 -5 0 -35 -25 -67
-55 -33 -30 -62 -55 -66 -55 -3 0 -19 -12 -35 -26 -34 -30 -145 -103 -194
-129 -35 -17 -122 -51 -212 -82 -26 -9 -45 -20 -42 -24 3 -5 -10 -6 -28 -3
-26 5 -30 3 -18 -6 12 -10 10 -11 -10 -6 -26 5 -135 -16 -126 -24 2 -3 -101
-5 -230 -5 -129 0 -234 3 -234 6 0 11 -78 32 -90 24 -9 -5 -11 -4 -6 3 5 8 0
12 -14 12 -34 0 -146 40 -215 76 -35 19 -71 34 -80 34 -9 0 -28 9 -42 20 -14
11 -31 20 -38 20 -6 0 -22 12 -36 26 -13 14 -41 35 -61 45 -21 11 -45 30 -53
43 -9 13 -29 29 -45 36 -17 7 -30 16 -30 19 0 4 -28 37 -62 74 -103 109 -117
126 -138 167 -11 22 -24 40 -29 40 -4 0 -25 34 -46 75 -20 41 -41 72 -45 70
-5 -3 -6 3 -3 13 2 10 -3 24 -11 31 -9 8 -16 22 -16 33 0 10 -4 17 -9 14 -5
-4 -7 2 -5 12 3 9 -4 27 -15 38 -13 15 -18 29 -14 44 4 14 2 21 -3 17 -6 -3
-8 9 -6 30 4 28 1 35 -10 31 -7 -3 -25 4 -38 15 -18 14 -19 18 -7 14 12 -5 17
-3 15 5 -7 20 -26 20 -45 1z"/>
<path d="M3374 4830 c0 -102 2 -143 3 -92 2 50 2 134 0 185 -1 50 -3 9 -3 -93z"/>
<path d="M18485 5000 c3 -5 8 -10 11 -10 2 0 4 5 4 10 0 6 -5 10 -11 10 -5 0
-7 -4 -4 -10z"/>
<path d="M8862 4650 c0 -14 2 -19 5 -12 2 6 2 18 0 25 -3 6 -5 1 -5 -13z"/>
</g>
</svg>
