<svg version="1.0" xmlns="http://www.w3.org/2000/svg"
 width="8891.000000pt" height="2084.000000pt" viewBox="0 0 8891.000000 2084.000000"
 preserveAspectRatio="xMidYMid meet">

<g transform="translate(0.000000,2084.000000) scale(0.100000,-0.100000)"
fill="#000000" stroke="none">
<path d="M23420 18904 c-652 -271 -1190 -494 -1196 -494 -6 0 -16 -18 -22 -39
-7 -23 -29 -54 -52 -75 l-40 -36 39 -35 c27 -25 43 -51 54 -88 8 -28 16 -44
16 -34 1 9 5 17 10 17 5 0 305 159 668 353 362 195 892 479 1178 632 457 244
553 297 535 294 -3 0 -538 -223 -1190 -495z"/>
<path d="M12555 17591 c-4 -18 -24 -50 -45 -73 l-39 -40 34 -33 c18 -19 39
-50 45 -71 l13 -37 13 38 c7 21 28 54 47 73 l34 34 -34 32 c-18 17 -40 49 -47
70 l-14 40 -7 -33z"/>
<path d="M17017 17414 c-1 -1 -87 -4 -192 -7 -1819 -59 -3630 -881 -4883
-2217 -1015 -1082 -1672 -2445 -1871 -3885 -55 -394 -66 -560 -66 -990 0 -386
10 -555 55 -920 64 -524 233 -1187 424 -1659 20 -50 33 -93 29 -96 -5 -4 -93
-44 -198 -90 -1479 -646 -3304 -1477 -4570 -2080 -176 -84 -365 -174 -420
-200 -352 -167 -1196 -582 -1192 -587 2 -1 44 10 93 26 49 17 287 94 529 172
997 321 2615 881 4055 1402 576 209 1798 658 1971 725 25 10 27 7 89 -106 199
-366 448 -737 714 -1067 313 -387 731 -800 1126 -1110 1151 -903 2571 -1439
4010 -1513 775 -39 1559 47 2294 253 1171 329 2207 927 3065 1770 581 571
1022 1177 1384 1901 418 836 655 1701 732 2668 13 164 14 917 1 1006 -3 19
-10 94 -16 165 -34 384 -150 994 -255 1336 -4 12 18 26 92 59 1122 490 2774
1233 3608 1622 83 39 177 83 210 98 254 117 549 256 1210 570 500 238 1395
677 1395 685 0 2 -12 0 -27 -5 -16 -5 -136 -43 -268 -85 -1093 -346 -3075
-1032 -4773 -1651 -295 -108 -559 -204 -587 -214 -27 -10 -282 -104 -565 -209
-283 -105 -519 -191 -525 -191 -5 0 -32 53 -59 118 -110 262 -271 579 -431
847 -1140 1912 -3134 3186 -5355 3421 -162 17 -381 31 -500 33 -74 1 -179 3
-233 4 -54 1 -99 1 -100 1z m453 -1678 c25 -3 79 -8 120 -11 660 -53 1381
-263 1995 -579 525 -271 946 -577 1355 -985 91 -90 125 -126 75 -81 -372 345
-732 597 -1160 815 -1008 513 -2119 666 -3225 445 -620 -124 -1199 -360 -1735
-708 -544 -353 -1032 -832 -1392 -1368 -498 -741 -776 -1544 -844 -2434 -15
-197 -6 -686 15 -870 47 -397 125 -746 249 -1102 l55 -157 -460 -197 c-254
-108 -463 -192 -468 -188 -26 28 -161 446 -219 679 -112 452 -151 767 -156
1255 -4 406 7 571 61 910 179 1122 706 2164 1504 2971 710 717 1589 1215 2575
1458 333 82 629 126 1000 150 122 8 573 5 655 -3z m511 -811 c1466 -129 2761
-955 3490 -2225 90 -158 218 -416 222 -450 2 -23 27 -12 -418 -185 -2004 -777
-3784 -1487 -5440 -2170 -143 -59 -307 -127 -365 -150 -126 -52 -1675 -698
-1879 -784 -79 -34 -147 -61 -152 -61 -10 0 -107 296 -148 450 -163 619 -190
1302 -76 1925 107 584 329 1141 653 1640 550 847 1367 1476 2337 1801 282 94
680 178 965 203 69 6 141 13 160 15 104 9 505 4 651 -9z m3978 -3492 c31 -119
73 -404 91 -608 13 -154 13 -535 0 -690 -38 -449 -137 -879 -297 -1285 -63
-159 -218 -476 -304 -623 -440 -745 -1062 -1331 -1824 -1717 -620 -314 -1268
-474 -1965 -485 -529 -8 -1036 75 -1535 251 -363 128 -675 285 -1010 509 -384
257 -710 557 -1003 923 -83 104 -271 372 -300 429 -11 20 -7 23 111 69 2234
864 5693 2272 7712 3138 160 68 295 125 302 125 7 1 17 -16 22 -36z m568
-1580 c-3 -10 -5 -2 -5 17 0 19 2 27 5 18 2 -10 2 -26 0 -35z m-10 -90 c-3
-10 -5 -2 -5 17 0 19 2 27 5 18 2 -10 2 -26 0 -35z m-21 -182 c-132 -1011
-588 -2026 -1264 -2816 -115 -134 -381 -404 -517 -524 -784 -696 -1763 -1153
-2805 -1310 -74 -11 -164 -23 -200 -26 -36 -3 -74 -8 -85 -10 -112 -22 -761
-27 -975 -7 -505 48 -948 145 -1390 306 -1180 431 -2164 1237 -2808 2303 -34
57 -62 106 -62 110 0 11 927 366 938 359 5 -3 34 -47 65 -98 184 -303 486
-680 748 -933 390 -377 790 -658 1274 -895 540 -266 1044 -414 1655 -486 181
-21 690 -30 891 -15 1350 101 2597 743 3459 1781 541 651 930 1495 1067 2315
23 140 29 104 9 -54z"/>
<path d="M23611 16535 c-6 -19 -26 -46 -44 -62 l-32 -28 37 -37 c21 -21 41
-52 46 -70 l9 -33 17 40 c9 22 30 54 47 71 l29 30 -40 43 c-22 23 -40 48 -40
56 0 29 -17 23 -29 -10z"/>
<path d="M64480 11373 c-25 -2 -97 -13 -160 -24 -729 -127 -1277 -640 -1454
-1361 -80 -326 -80 -710 -1 -1029 114 -458 376 -839 744 -1083 243 -162 557
-273 852 -303 136 -14 436 -8 552 11 703 114 1227 544 1453 1191 83 236 109
405 109 705 0 261 -11 349 -70 565 -202 734 -786 1228 -1565 1325 -78 9 -355
11 -460 3z m405 -584 c536 -69 940 -503 1016 -1094 14 -109 13 -361 -1 -453
-29 -179 -84 -355 -153 -482 -244 -454 -720 -683 -1252 -605 -264 39 -483 151
-664 341 -174 182 -284 408 -338 697 -26 141 -24 437 5 582 121 611 538 996
1112 1024 134 6 153 6 275 -10z"/>
<path d="M78440 11377 c-3 -2 -32 -7 -65 -10 -294 -30 -579 -134 -841 -308
-151 -100 -361 -311 -463 -464 -178 -268 -289 -589 -321 -925 -10 -112 -5
-362 9 -475 128 -979 876 -1632 1871 -1633 552 -1 1020 190 1378 562 335 350
512 819 512 1360 0 566 -229 1100 -615 1438 -245 216 -558 365 -898 429 -84
16 -167 22 -337 26 -124 3 -227 3 -230 0z"/>
<path d="M37060 9475 l0 -1845 1265 0 1265 0 0 285 0 285 -940 0 -940 0 0 510
0 510 920 0 920 0 0 290 0 290 -917 0 -918 -1 -3 476 -2 475 940 0 940 0 0
285 0 285 -1265 0 -1265 0 0 -1845z"/>
<path d="M40375 11285 c12 -27 790 -2006 1060 -2695 53 -136 363 -924 372
-947 4 -10 96 -13 412 -13 l406 0 717 1828 c395 1005 721 1835 724 1845 6 16
-16 17 -363 17 l-368 0 -555 -1485 c-305 -816 -558 -1485 -561 -1485 -3 0
-255 667 -560 1483 l-555 1482 -371 3 -372 2 14 -35z"/>
<path d="M44900 9475 l0 -1845 1270 0 1270 0 0 285 0 285 -940 0 -940 0 -1
480 c-1 264 -1 492 -2 508 l-1 27 922 3 922 2 0 284 c0 249 -2 285 -16 290 -8
3 -421 6 -917 6 l-902 -1 -5 459 c-3 252 -4 466 -2 475 3 16 74 17 943 17
l939 0 0 285 0 285 -1270 0 -1270 0 0 -1845z"/>
<path d="M48580 9475 l0 -1845 325 0 325 0 2 1337 3 1337 86 -119 c47 -66 303
-424 569 -795 266 -371 596 -832 734 -1025 138 -192 312 -435 387 -540 l136
-190 316 -3 317 -2 0 1845 0 1845 -325 0 -325 0 0 -1306 0 -1307 -53 74 c-30
41 -123 171 -209 289 -318 442 -786 1092 -933 1295 -83 116 -272 378 -420 583
l-269 372 -333 0 -333 0 0 -1845z"/>
<path d="M52680 11035 l0 -285 558 0 557 0 -3 -1560 -2 -1560 330 0 330 0 -2
1560 -3 1560 558 0 557 0 0 285 0 285 -1440 0 -1440 0 0 -285z"/>
<path d="M58530 9475 l0 -1845 325 0 325 0 0 805 0 805 960 0 960 0 0 -805 0
-805 325 0 325 0 0 1845 0 1845 -325 0 -325 0 0 -755 0 -755 -960 0 -960 0 0
755 0 755 -325 0 -325 0 0 -1845z"/>
<path d="M67630 9475 l0 -1845 325 0 325 0 0 685 c0 377 3 685 8 685 196 2
635 1 637 -2 2 -2 72 -118 155 -258 147 -246 192 -321 514 -862 l147 -248 375
0 c298 0 374 3 367 13 -78 127 -264 426 -536 863 -185 297 -339 547 -342 556
-5 12 11 20 82 37 101 25 241 89 334 151 93 62 225 202 283 298 216 361 214
882 -4 1242 -154 255 -400 423 -735 503 -88 20 -110 21 -1012 24 l-923 4 0
-1846z m1734 1251 c108 -32 196 -84 271 -160 83 -83 126 -164 149 -278 19 -93
20 -139 2 -240 -37 -206 -179 -364 -390 -435 l-81 -28 -517 -3 -518 -3 0 586
0 586 513 -4 c452 -3 519 -5 571 -21z"/>
<path d="M71530 9475 l0 -1845 330 0 330 0 0 1845 0 1845 -330 0 -330 0 0
-1845z"/>
<path d="M73222 11038 l3 -283 942 -5 941 -5 -291 -400 c-160 -220 -584 -804
-943 -1297 l-652 -897 -1 -261 -2 -260 1391 0 1390 0 0 285 0 285 -963 2 -963
3 943 1295 942 1295 1 263 0 262 -1370 0 -1370 0 2 -282z"/>
<path d="M81570 9475 l0 -1845 325 0 325 0 2 1340 3 1340 291 -407 c161 -225
482 -673 715 -998 232 -324 532 -744 667 -932 l246 -343 318 0 318 0 0 1845 0
1845 -330 0 -330 0 -2 -1300 -3 -1301 -240 333 c-132 183 -303 421 -381 528
-77 107 -267 371 -422 585 -154 215 -404 561 -555 770 l-273 380 -337 3 -337
2 0 -1845z"/>
<path d="M8770 8291 c-7 -17 -27 -45 -45 -62 l-33 -32 28 -24 c15 -12 35 -39
45 -59 l17 -37 16 33 c8 17 29 45 45 61 l29 30 -27 21 c-15 12 -35 39 -45 60
l-17 39 -13 -30z"/>
<path d="M27716 5289 c-3 -17 -23 -49 -45 -70 l-39 -39 39 -39 c22 -21 42 -53
45 -70 l7 -32 19 43 c10 24 33 57 49 74 l30 31 -26 17 c-15 10 -37 40 -50 67
l-22 49 -7 -31z"/>
<path d="M13803 3036 c-12 -24 -35 -55 -52 -67 l-29 -22 30 -25 c17 -15 40
-46 51 -71 l19 -44 14 39 c7 21 28 53 46 69 l33 30 -37 37 c-21 21 -41 51 -45
68 l-8 31 -22 -45z"/>
<path d="M10034 2767 c-236 -111 -529 -248 -650 -304 -614 -285 -990 -460
-1089 -507 -60 -28 -203 -94 -317 -146 -134 -62 -208 -100 -208 -110 0 -22
-36 -78 -67 -104 l-26 -23 30 -21 c26 -18 49 -57 67 -115 5 -16 8 -16 28 -4
13 8 617 353 1343 767 726 414 1324 757 1330 762 22 20 -33 -5 -441 -195z"/>
</g>
</svg>
